<svg id="apple" xmlns="http://www.w3.org/2000/svg" width="20.717" height="25.414" viewBox="0 0 20.717 25.414">
    <g id="Group_1195" data-name="Group 1195" transform="translate(0)">
        <path id="Path_53010" data-name="Path 53010" d="M125.582,73.212A5.439,5.439,0,0,1,129.573,71a5.427,5.427,0,0,1-1.313,4.062,4.291,4.291,0,0,1-3.784,1.78A4.719,4.719,0,0,1,125.582,73.212Zm3.66,23.165c-1.485,0-2.639-1-4.2-1-1.594,0-3.176,1.038-4.207,1.038-2.952,0-6.681-6.39-6.681-11.527,0-5.054,3.157-7.7,6.117-7.7,1.925,0,3.418,1.11,4.419,1.11.859,0,2.453-1.181,4.528-1.181a5.672,5.672,0,0,1,4.977,2.542,5.518,5.518,0,0,0-2.748,4.815,5.659,5.659,0,0,0,3.424,5.172S132.475,96.376,129.242,96.376Z" transform="translate(-114.151 -71)" fill="#fff" />
    </g>
</svg>
  