<svg xmlns="http://www.w3.org/2000/svg" width="13.713" height="7.661" viewBox="0 0 13.713 7.661">
    <g id="noun-right-1920905" transform="translate(27.922 -78.165) rotate(90)">
        <path id="Path_8" data-name="Path 8" d="M202.138,27.922a.819.819,0,0,1-.578-.231.8.8,0,0,1,0-1.141l5.473-5.487-5.473-5.473a.8.8,0,0,1,0-1.141.815.815,0,0,1,1.141-.015l6.051,6.051a.8.8,0,0,1,.231.578.858.858,0,0,1-.231.578L202.7,27.69a.786.786,0,0,1-.563.231Z" transform="translate(-123.157)" fill="#fff" />
    </g>
</svg>
  