<svg xmlns="http://www.w3.org/2000/svg" width="16.459" height="16.459" viewBox="0 0 16.459 16.459">
  <path id="noun-calender-4697530" d="M188.99,89.146h-1.646v-.823a.823.823,0,1,0-1.646,0v.823h-4.938v-.823a.823.823,0,1,0-1.646,0v.823h-1.646A2.469,2.469,0,0,0,175,91.615v9.875a2.469,2.469,0,0,0,2.469,2.469H188.99a2.469,2.469,0,0,0,2.469-2.469V91.615a2.469,2.469,0,0,0-2.469-2.469Zm.823,12.344a.823.823,0,0,1-.823.823H177.469a.823.823,0,0,1-.823-.823V91.615a.823.823,0,0,1,.823-.823h1.646v.823a.823.823,0,1,0,1.646,0v-.823H185.7v.823a.823.823,0,1,0,1.646,0v-.823h1.646a.823.823,0,0,1,.823.823Z" transform="translate(-175 -87.5)" fill="#fff"/>
</svg>
