<svg xmlns="http://www.w3.org/2000/svg" width="52.744" height="52.617" viewBox="0 0 52.744 52.617">
  <g id="noun-goal-1218074" transform="translate(-71.502 -3.806)">
    <path id="Path_53059" data-name="Path 53059" d="M125.263,11.472,120.325,9.9a1.618,1.618,0,0,0-.121-.148c-.031-.03-.065-.053-.1-.079L118.832,4.9a1.468,1.468,0,0,0-2.459-.659l-4.166,4.169a1.47,1.47,0,0,0-.38,1.417l1.236,4.64a1.379,1.379,0,0,0-.061.141,1.433,1.433,0,0,0-.061.332L99.986,27.89a7.012,7.012,0,1,0,2.077,2.079l3.169-3.169a11.429,11.429,0,0,1-9.051,18.411h0A11.438,11.438,0,0,1,88.1,25.685a11.505,11.505,0,0,1,12.722-2.368,1.469,1.469,0,0,0,1.191-2.686,14.461,14.461,0,0,0-15.992,2.976A14.375,14.375,0,0,0,96.179,48.149h0A14.375,14.375,0,0,0,107.33,24.7l3.784-3.783a19.692,19.692,0,1,1-5.127-4.243,1.47,1.47,0,1,0,1.464-2.548,22.7,22.7,0,1,0,5.745,4.707l1.879-1.878a1.455,1.455,0,0,0,.164-.022c.039-.01.072-.029.109-.041l4.857,1.547a1.5,1.5,0,0,0,.445.068,1.47,1.47,0,0,0,1.039-.43l4.166-4.169a1.469,1.469,0,0,0-.594-2.439Zm-8.612-3.355.58,2.177a1.339,1.339,0,0,0-.063.144,1.493,1.493,0,0,0-.061.332l-1.569,1.57-.653-2.455ZM99.06,36.652a4.071,4.071,0,1,1-1.236-6.6l-2.682,2.682a1.469,1.469,0,1,0,2.077,2.077L99.9,32.132a4.069,4.069,0,0,1-.838,4.52Zm21.185-21.283-2.716-.865,1.71-1.71a1.514,1.514,0,0,0,.173-.027c.037-.01.068-.027.105-.04l2.556.813Z" transform="translate(-2.04)" fill="#d9a561"/>
  </g>
</svg>
