<svg id="_205" data-name="205" xmlns="http://www.w3.org/2000/svg" width="21.328" height="22.751" viewBox="0 0 21.328 22.751">
    <g id="Group_7805" data-name="Group 7805" transform="translate(1.435 0)">
        <g id="Group_7804" data-name="Group 7804" transform="translate(0)">
            <path id="Path_55247" data-name="Path 55247" d="M51.122.364A2.889,2.889,0,0,0,48.3.371L58.667,9.933,62.15,6.451Z" transform="translate(-48.302 0)" fill="#fff" />
        </g>
    </g>
    <g id="Group_7807" data-name="Group 7807" transform="translate(0 1.349)">
        <g id="Group_7806" data-name="Group 7806" transform="translate(0)">
            <path id="Path_55248" data-name="Path 55248" d="M16.412,30.365a2.651,2.651,0,0,0-.4,1.389v17.27a2.66,2.66,0,0,0,.371,1.355L26.809,39.955Z" transform="translate(-16.014 -30.365)" fill="#fff" />
        </g>
    </g>
    <g id="Group_7809" data-name="Group 7809" transform="translate(12.845 7.166)">
        <g id="Group_7808" data-name="Group 7808">
            <path id="Path_55249" data-name="Path 55249" d="M312.156,163.11l-3.321-1.833-3.732,3.731,4.574,4.219,2.481-1.369a2.687,2.687,0,0,0,0-4.748Z" transform="translate(-305.102 -161.277)" fill="#fff" />
        </g>
    </g>
    <g id="Group_7811" data-name="Group 7811" transform="translate(1.388 11.904)">
        <g id="Group_7810" data-name="Group 7810" transform="translate(0)">
            <path id="Path_55250" data-name="Path 55250" d="M57.7,267.9,47.246,278.353a2.882,2.882,0,0,0,2.866.027l11.854-6.542Z" transform="translate(-47.246 -267.901)" fill="#fff" />
        </g>
    </g>
</svg>
  