<svg xmlns="http://www.w3.org/2000/svg" width="20.859" height="20.86" viewBox="0 0 20.859 20.86">
    <g id="noun-language-1819931" transform="translate(-111.452 -94.314)">
        <path id="Path_7" data-name="Path 7" d="M163.871,115.174a10.43,10.43,0,1,0-10.43-10.43A10.441,10.441,0,0,0,163.871,115.174Zm-8.585-9.531h2.359a13.936,13.936,0,0,0,1.818,6.509,8.637,8.637,0,0,1-4.177-6.509Zm8.585-9.461c2.256,0,4.184,3.425,4.427,7.662h-8.855c.242-4.237,2.171-7.662,4.427-7.662Zm4.427,9.461c-.243,4.237-2.171,7.662-4.427,7.662s-4.184-3.426-4.427-7.662Zm-.019,6.509a13.941,13.941,0,0,0,1.818-6.509h2.359a8.636,8.636,0,0,1-4.177,6.509Zm4.177-8.308H170.1a13.932,13.932,0,0,0-1.818-6.509,8.637,8.637,0,0,1,4.177,6.509Zm-12.992-6.509a13.937,13.937,0,0,0-1.818,6.509h-2.359a8.637,8.637,0,0,1,4.177-6.509Z" transform="translate(-41.989 0)" fill="#fff" />
    </g>
</svg>
  