<svg xmlns="http://www.w3.org/2000/svg" width="52.17" height="52.169" viewBox="0 0 52.17 52.169">
  <g id="Group_1289" data-name="Group 1289" transform="translate(-652.995 -2282.771)">
    <g id="noun-message-1085800" transform="translate(652.995 2282.771)">
      <path id="Path_53058" data-name="Path 53058" d="M132.25,31.256a14.674,14.674,0,0,1,0,29.348h-3.884a11.408,11.408,0,0,0-11.413,11.408v.278L106.519,61.856a17.929,17.929,0,0,1,12.688-30.6H132.25m0-3.258H119.207a21.192,21.192,0,0,0-14.983,36.176L120.211,80.16v-8.15a8.15,8.15,0,0,1,8.155-8.15h3.89a17.935,17.935,0,1,0-.006-35.869Z" transform="translate(-98.018 -27.991)" fill="#d9a561"/>
    </g>
    <line id="Line_6" data-name="Line 6" x2="21.733" transform="translate(668.647 2296.684)" fill="none" stroke="#d9a561" stroke-linecap="round" stroke-width="3"/>
    <line id="Line_7" data-name="Line 7" x2="13.909" transform="translate(668.647 2304.508)" fill="none" stroke="#d9a561" stroke-linecap="round" stroke-width="3"/>
  </g>
</svg>
