<svg xmlns="http://www.w3.org/2000/svg" width="16.459" height="16.46" viewBox="0 0 16.459 16.46">
    <path id="noun-telephone-1126730" d="M135.075,52.465a3.9,3.9,0,0,1,3.885,3.828h0q0,.031,0,.062a12.585,12.585,0,0,1-12.57,12.57h0a.616.616,0,0,1-.07,0,3.9,3.9,0,0,1-3.818-3.885,3.768,3.768,0,0,1,.9-2.463h0a.634.634,0,0,1,.409-.216l4.5-.5c.021,0,.043,0,.064,0a.634.634,0,0,1,.387.127,3.612,3.612,0,0,1,.836,1.008c.042.065.036.062.073.122a7.987,7.987,0,0,0,3.469-3.467c-.061-.038-.058-.031-.125-.074a3.615,3.615,0,0,1-1.008-.836h0a.634.634,0,0,1-.122-.451l.5-4.5a.634.634,0,0,1,.216-.41,3.771,3.771,0,0,1,2.463-.9Zm0,1.266a2.482,2.482,0,0,0-1.454.486l-.435,3.875a4.133,4.133,0,0,0,.522.408c.264.17.443.268.5.3h0a.633.633,0,0,1,.362.8q-.007.022-.016.043l-.006.012h0l-.009.017a9.27,9.27,0,0,1-4.812,4.819l-.01,0-.03.015a.633.633,0,0,1-.854-.357c-.033-.06-.123-.226-.289-.483a4.15,4.15,0,0,0-.408-.522l-3.875.435a2.479,2.479,0,0,0-.486,1.454,2.614,2.614,0,0,0,2.622,2.622,11.3,11.3,0,0,0,11.3-11.3,2.615,2.615,0,0,0-2.622-2.624Z" transform="translate(-122.505 -52.465)" fill="#fff"/>
  </svg>
  