<svg xmlns="http://www.w3.org/2000/svg" width="35.334" height="35.336" viewBox="0 0 35.334 35.336">
    <path id="noun-telephone-1126730" d="M149.491,52.465a8.367,8.367,0,0,1,8.34,8.218h0q.007.066.008.133A27.018,27.018,0,0,1,130.853,87.8h0a1.323,1.323,0,0,1-.151-.008,8.366,8.366,0,0,1-8.2-8.34,8.088,8.088,0,0,1,1.932-5.287h0a1.361,1.361,0,0,1,.878-.464l9.667-1.083c.046-.006.092-.009.138-.011a1.36,1.36,0,0,1,.831.273,7.753,7.753,0,0,1,1.794,2.163c.09.14.077.133.157.263a17.146,17.146,0,0,0,7.448-7.443c-.132-.081-.125-.067-.268-.159a7.76,7.76,0,0,1-2.163-1.794h0a1.361,1.361,0,0,1-.263-.969l1.083-9.667a1.361,1.361,0,0,1,.464-.881,8.1,8.1,0,0,1,5.287-1.93Zm0,2.718a5.329,5.329,0,0,0-3.121,1.043l-.934,8.319a8.874,8.874,0,0,0,1.12.876c.567.366.952.575,1.064.637h0a1.359,1.359,0,0,1,.778,1.72q-.015.047-.035.093c0,.009-.009.017-.013.027h0l-.019.037A19.9,19.9,0,0,1,138,78.28l-.021.011c-.022.009-.042.022-.064.032a1.359,1.359,0,0,1-1.834-.767c-.071-.128-.265-.485-.621-1.038a8.91,8.91,0,0,0-.876-1.12l-8.319.934a5.321,5.321,0,0,0-1.043,3.121,5.612,5.612,0,0,0,5.63,5.63A24.262,24.262,0,0,0,155.12,60.815a5.614,5.614,0,0,0-5.63-5.632Z" transform="translate(-122.505 -52.465)" fill="#007673"/>
  </svg>
  