<svg id="twitter" xmlns="http://www.w3.org/2000/svg" width="13.607" height="11.055" viewBox="0 0 13.607 11.055">
  <g id="Group_1218" data-name="Group 1218" transform="translate(0 0)">
    <path id="Path_53047" data-name="Path 53047" d="M13.607,49.309A5.816,5.816,0,0,1,12,49.749a2.774,2.774,0,0,0,1.227-1.542,5.574,5.574,0,0,1-1.769.675A2.789,2.789,0,0,0,6.632,50.79a2.872,2.872,0,0,0,.065.636,7.9,7.9,0,0,1-5.75-2.918A2.79,2.79,0,0,0,1.8,52.237a2.755,2.755,0,0,1-1.26-.344v.031a2.8,2.8,0,0,0,2.235,2.741,2.784,2.784,0,0,1-.731.092,2.467,2.467,0,0,1-.528-.048,2.816,2.816,0,0,0,2.607,1.943,5.6,5.6,0,0,1-3.459,1.19A5.227,5.227,0,0,1,0,57.8a7.853,7.853,0,0,0,4.279,1.252,7.885,7.885,0,0,0,7.939-7.938c0-.123,0-.242-.01-.361A5.565,5.565,0,0,0,13.607,49.309Z" transform="translate(0 -48)" fill="#fff"/>
  </g>
</svg>
