<svg id="noun-vision-1293486" xmlns="http://www.w3.org/2000/svg" width="38.037" height="55.787" viewBox="0 0 38.037 55.787">
  <path id="Path_53057" data-name="Path 53057" d="M153.572,6.216a18.993,18.993,0,0,0-19.018,19.018c0,5.959,3.677,11.791,6.72,14.834a12.981,12.981,0,0,1,3.17,4.184h-1.014v2.536H144.7v2.536h-1.268v2.536H144.7v2.409a3.044,3.044,0,0,0,.761,1.9,2.5,2.5,0,0,0,1.775.761H148.5v2.536A2.6,2.6,0,0,0,151.036,62h5.072a2.6,2.6,0,0,0,2.536-2.536V56.931h1.268a2.5,2.5,0,0,0,1.775-.761,3.044,3.044,0,0,0,.761-1.9V51.86h1.268V49.324h-1.268V46.789h1.268V44.253H162.7c.38-1.014,1.141-2.155,3.17-4.184,3.043-3.043,6.72-8.875,6.72-14.834A18.993,18.993,0,0,0,153.572,6.217Zm2.536,53.251h-5.072V56.931h5.072Zm7.988-21.174c-2.663,2.663-3.677,4.311-4.057,5.959l-.127,2.536v7.607H147.232V46.788c0-2.916-.127-4.564-4.184-8.495-2.155-2.282-5.959-7.48-5.959-13.058a16.483,16.483,0,0,1,32.966,0c0,5.579-3.8,10.777-5.959,13.058Zm-10.524-19.4a1.2,1.2,0,0,0-1.268,1.268V21.43a2.543,2.543,0,0,1-2.536,2.536H148.5a1.2,1.2,0,0,0-1.268,1.268,6.339,6.339,0,1,0,6.34-6.34Zm0,10.143a3.693,3.693,0,0,1-3.55-2.536,5.081,5.081,0,0,0,4.818-4.818,3.693,3.693,0,0,1,2.536,3.55A3.735,3.735,0,0,1,153.571,29.038Z" transform="translate(-134.553 -6.216)" fill="#d9a561"/>
</svg>
