<svg id="_2253" data-name="2253" xmlns="http://www.w3.org/2000/svg" width="34.46" height="34.461" viewBox="0 0 34.46 34.461">
    <path id="Path_55242" data-name="Path 55242" d="M22.533,17.774l-.013.108c-3.157-1.574-3.488-1.783-3.9-1.172-.283.424-1.107,1.384-1.355,1.668s-.5.3-.928.108a11.653,11.653,0,0,1-3.45-2.132,13.027,13.027,0,0,1-2.384-2.972c-.421-.727.459-.83,1.261-2.346a.789.789,0,0,0-.036-.752c-.108-.215-.965-2.326-1.324-3.167s-.7-.732-.965-.732a2.137,2.137,0,0,0-1.964.494c-2.317,2.547-1.733,5.175.25,7.969,3.9,5.1,5.973,6.039,9.77,7.343a5.94,5.94,0,0,0,2.7.174,4.419,4.419,0,0,0,2.895-2.048,3.554,3.554,0,0,0,.258-2.046c-.106-.194-.388-.3-.818-.5Z" transform="translate(2.605 2.769)" fill="#007673"/>
    <path id="Path_55243" data-name="Path 55243" d="M29.464,4.952C18.423-5.72.152,2.02.145,17.077a17,17,0,0,0,2.29,8.536L0,34.461l9.1-2.372a17.188,17.188,0,0,0,25.364-15A16.935,16.935,0,0,0,29.442,5.008Zm2.128,12.086a14.3,14.3,0,0,1-21.555,12.21l-.517-.307-5.384,1.4,1.443-5.234-.343-.538A14.241,14.241,0,0,1,27.415,7a14.054,14.054,0,0,1,4.177,10.037Z" transform="translate(0 0)" fill="#007673"/>
  </svg>
  